<svg width="827" height="133" viewBox="0 0 827 133" fill="none" xmlns="http://www.w3.org/2000/svg">
<path d="M93 65.5C93 91.1812 72.1812 112 46.5 112C20.8188 112 0 91.1812 0 65.5C0 39.8188 20.8188 19 46.5 19C72.1812 19 93 39.8188 93 65.5Z" fill="#D3FFCA"/>
<path d="M718.197 130.392L758.433 0H786.001L826.236 130.392H810.031L799.972 97.4216H744.462L734.403 130.392H718.197ZM748.374 83.2647H795.874L773.521 9.5H770.913L748.374 83.2647Z" fill="#D3FFCA"/>
<path d="M626.755 130.392V0H642.402V116.235H708.344V130.392H626.755Z" fill="#D3FFCA"/>
<path d="M549.821 133C540.135 133 531.69 131.261 524.488 127.784C517.285 124.307 511.697 119.154 507.723 112.324C503.749 105.369 501.762 96.8627 501.762 86.8039V0H517.223V86.9902C517.223 97.6699 520.079 105.68 525.792 111.02C531.504 116.359 539.514 119.029 549.821 119.029C560.128 119.029 568.138 116.359 573.851 111.02C579.563 105.68 582.419 97.6699 582.419 86.9902V0H598.066V86.8039C598.066 96.8627 596.079 105.369 592.105 112.324C588.132 119.154 582.481 124.307 575.154 127.784C567.952 131.261 559.507 133 549.821 133Z" fill="#D3FFCA"/>
<path d="M373.394 130.392V116.422H391.649V13.9706H373.394V0H438.777C446.352 0 453.058 1.36601 458.895 4.09804C464.855 6.83007 469.45 10.6797 472.679 15.6471C476.032 20.4902 477.708 26.2026 477.708 32.7843V34.2745C477.708 40.3595 476.528 45.3889 474.169 49.3627C471.81 53.2124 469.015 56.2549 465.787 58.4902C462.558 60.6013 459.391 62.1536 456.287 63.1471V65.7549C459.391 66.5 462.62 67.9902 465.973 70.2255C469.326 72.3366 472.12 75.3791 474.355 79.3529C476.715 83.3268 477.895 88.3562 477.895 94.4412V96.3039C477.895 103.382 476.156 109.529 472.679 114.745C469.326 119.837 464.669 123.748 458.708 126.48C452.872 129.088 446.166 130.392 438.591 130.392H373.394ZM407.296 116.235H436.914C445.11 116.235 451.381 114.31 455.728 110.461C460.074 106.611 462.247 101.395 462.247 94.8137V93.1372C462.247 86.5555 460.074 81.3399 455.728 77.4902C451.381 73.6405 445.11 71.7157 436.914 71.7157H407.296V116.235ZM407.296 57.5588H437.473C444.924 57.5588 450.885 55.6961 455.355 51.9706C459.826 48.1209 462.061 43.0915 462.061 36.8823V35.0196C462.061 28.6863 459.826 23.6569 455.355 19.9314C451.009 16.0817 445.048 14.1569 437.473 14.1569H407.296V57.5588Z" fill="#D3FFCA"/>
<path d="M274.58 130.392V0H354.865V14.1569H290.227V57.7451H349.649V71.902H290.227V116.235H355.796V130.392H274.58Z" fill="#D3FFCA"/>
<path d="M150.882 130.392V0H181.245L226.696 120.52H229.118V0H244.578V130.392H214.216L168.951 9.68628H166.343V130.392H150.882Z" fill="#D3FFCA"/>
</svg>
